<?xml version="1.0" standalone="no"?><!DOCTYPE svg PUBLIC "-//W3C//DTD SVG 1.1//EN" "http://www.w3.org/Graphics/SVG/1.1/DTD/svg11.dtd"><svg t="1719444865288" class="icon" viewBox="0 0 1024 1024" version="1.1" xmlns="http://www.w3.org/2000/svg" p-id="8735" xmlns:xlink="http://www.w3.org/1999/xlink" width="200" height="200"><path d="M679 678.126L597.312 576l2.626-135.89c-112.704-31.438-159.984-250.782 4.218-259.766a165.09 165.09 0 0 1 9.126-0.266c171.594 0 112.844 278.954 112.844 278.954C930 421.454 945.688 0 608.75 0c-155.126 0-289.266 109.468-289.266 280 0 104 49.656 181.454 107.126 232.89L426.64 576l-81.734 102.188C216.532 740.312 128 871.812 128 1024h768c0-152.218-88.562-283.75-217-345.874z m-219.046-75.47l9.36-11.718-0.018-14.938-0.032-63.14v-19.046l-14.204-12.718c-42.39-37.938-92.906-103.626-92.906-201.094 0-35.422 6.656-68.578 19.796-98.578 12.328-28.156 30.11-53.032 52.876-73.968 45.422-41.782 107.188-64.782 173.922-64.782 36 0 68.594 5.422 96.906 16.11 25.062 9.484 46.968 23.172 65.032 40.688 32.688 31.626 53.188 76.484 57.75 126.312 4.094 45.062-5.282 91.376-25.75 127.062-6 10.5-14.188 22.156-24.876 32.718 0.282-5.734 0.5-11.64 0.594-17.688 1.438-77.656-14.156-137.14-46.312-176.796-28.468-35.11-69.594-53.656-118.812-53.656-3.75 0-7.594 0.11-11.468 0.312-21.25 1.172-40.906 5.296-58.344 12.296-17.5 7.016-32.89 16.906-45.75 29.406-23.438 22.766-37.86 53.578-41.734 89.11-4.562 41.782 6.016 88.39 29.032 127.86 18.484 31.734 43.296 56.422 71.704 71.876l-2.032 106.906-0.312 15.438 9.626 12 38.468 48.126A385.284 385.284 0 0 0 512 640c-31.188 0-61.5 3.75-90.532 10.75l38.486-48.094zM259.516 981.312c8.688-52.126 33.312-100.188 71.454-138.312 48.36-48.376 112.64-75 181.032-75 11.782 0 21.328-9.562 21.328-21.312 0-11.812-9.546-21.376-21.328-21.376h-0.016c-150.454 0-274.906 111.282-295.61 256H173.282a337.862 337.862 0 0 1 24.188-90.156c17.188-40.656 41.796-77.156 73.172-108.532 31.36-31.344 67.86-55.968 108.5-73.156 42.062-17.782 86.75-26.782 132.86-26.782 46.094 0 90.782 9 132.844 26.782 40.656 17.188 77.156 41.812 108.5 73.156 31.376 31.376 55.968 67.876 73.156 108.532a337.266 337.266 0 0 1 24.188 90.156H259.516z" fill="#0a66c2" p-id="8736"></path></svg>